<svg width="24" height="24" viewBox="0 0 24 24" fill="none" xmlns="http://www.w3.org/2000/svg">
<path d="M9 2.97461H4C3.44772 2.97461 3 3.41855 3 3.96617V10.9071C3 11.4547 3.44772 11.8987 4 11.8987H9C9.55228 11.8987 10 11.4547 10 10.9071V3.96617C10 3.41855 9.55228 2.97461 9 2.97461Z" stroke="#696666" stroke-width="2" stroke-linecap="round" stroke-linejoin="round"/>
<path d="M20 2.97461H15C14.4477 2.97461 14 3.41855 14 3.96617V6.94085C14 7.48848 14.4477 7.93242 15 7.93242H20C20.5523 7.93242 21 7.48848 21 6.94085V3.96617C21 3.41855 20.5523 2.97461 20 2.97461Z" stroke="#696666" stroke-width="2" stroke-linecap="round" stroke-linejoin="round"/>
<path d="M20 11.8989H15C14.4477 11.8989 14 12.3429 14 12.8905V19.8314C14 20.379 14.4477 20.823 15 20.823H20C20.5523 20.823 21 20.379 21 19.8314V12.8905C21 12.3429 20.5523 11.8989 20 11.8989Z" stroke="#696666" stroke-width="2" stroke-linecap="round" stroke-linejoin="round"/>
<path d="M9 15.8647H4C3.44772 15.8647 3 16.3087 3 16.8563V19.831C3 20.3786 3.44772 20.8226 4 20.8226H9C9.55228 20.8226 10 20.3786 10 19.831V16.8563C10 16.3087 9.55228 15.8647 9 15.8647Z" stroke="#696666" stroke-width="2" stroke-linecap="round" stroke-linejoin="round"/>
</svg>
